HIERARCHY
ROOT Hips
{
	OFFSET 0.00000 0.00000 0.00000
	CHANNELS 6 Xposition Yposition Zposition Yrotation Zrotation Xrotation 
	JOINT Lumbar
	{
		OFFSET 0 0 0
		CHANNELS 3 Zrotation Xrotation Yrotation
		JOINT Neck
		{
			OFFSET 0.00 0.2701 0.00
			CHANNELS 3 Zrotation Xrotation Yrotation
			End Site
			{
				OFFSET 0.00 0.1379 0.00
			}
		}
		JOINT RightShoulder
		{
			OFFSET 0.0119 0.2289 0.1181
			CHANNELS 3 Zrotation Xrotation Yrotation
			JOINT RightElbow
			{
				OFFSET 0.00 -0.1475 0.00
				CHANNELS 2 Zrotation Yrotation
				JOINT RightWrist
				{
					OFFSET 0.00 -0.1605 0.00
					CHANNELS 2 Zrotation Xrotation
					End Site
					{
						OFFSET 0.0040 -0.1068 0.0006
					}
				}
			}
		}
		JOINT LeftShoulder
		{
			OFFSET 0.0119 0.2289 -0.1181
			CHANNELS 3 Zrotation Xrotation Yrotation
			JOINT LeftElbow
			{
				OFFSET 0.00 -0.1475 0.00
				CHANNELS 2 Zrotation Yrotation
				JOINT LeftWrist
				{
					OFFSET 0.00 -0.1605 0.00
					CHANNELS 2 Zrotation Xrotation
					End Site
					{
						OFFSET 0.0040 -0.1068 -0.0006
					}
				}
			}
		}
	}
	JOINT RightHip
	{
		OFFSET 0.0316 -0.0424 0.0458
		CHANNELS 3 Zrotation Xrotation Yrotation
		JOINT RightKnee
		{
			OFFSET 0.00 -0.2438 0.00
			CHANNELS 1 Zrotation
			JOINT RightAnkle
			{
				OFFSET 0.00 -0.2449 0.00
				CHANNELS 3 Zrotation Xrotation Yrotation
				End Site
				{
					OFFSET 0.1237 -0.0542 0.0051
				}
			}
		}
	}
	JOINT LeftHip
	{
		OFFSET 0.0316 -0.0424 -0.0458
		CHANNELS 3 Zrotation Xrotation Yrotation
		JOINT LeftKnee
		{
			OFFSET 0.00 -0.2438 0.00
			CHANNELS 1 Zrotation
			JOINT LeftAnkle
			{
				OFFSET 0.00 -0.2449 0.00
				CHANNELS 3 Zrotation Xrotation Yrotation
				End Site
				{
					OFFSET 0.1237 -0.0542 -0.0051
				}
			}
		}
	}
}
MOTION
Frames: 22
Frame Time: 0.02
0.25966 0.47353 -0.64198 117.16255 0 -4.66316 -56.06392 6.3635 35.38857 -73.79693 43.14359 -28.37821 -34.48917 -171.02787 -90.01032 27.4738 84.00509 -4.77599 2.15268 148.53299 22.96067 -64.165 5.32874 -78.7318 -2.60549 2.7451 22.20661 -2.73671 -17.91364 -64.66564 15.2657 -12.69969 -9.56048 39.98397 6.42505 4.20365 -57.15347 4.12129 4.4686 5.50389
0.2584 0.47487 -0.64244 117.39181 0 -4.92594 -56.06392 6.85067 35.14276 -73.79694 43.14363 -28.68847 -34.43138 -171.02788 -90.01053 29.47486 83.65488 -4.74263 1.71483 148.60614 23.6687 -64.16593 5.32871 -79.30458 -2.51579 2.49768 21.78009 -2.48882 -17.9731 -64.02258 15.00634 -12.36756 -9.52716 39.71839 6.60005 4.33049 -56.78867 4.14033 4.37633 5.23261
0.2571 0.47652 -0.6429 117.54846 0 -5.24547 -56.06392 7.25262 34.79763 -73.79694 43.14365 -29.2583 -34.37563 -171.02788 -90.01078 31.97202 83.20282 -4.69445 1.20957 148.83126 24.74616 -64.16719 5.32867 -79.99627 -2.40031 2.21852 21.30518 -2.17763 -18.04561 -63.24466 14.69154 -11.92995 -9.43809 39.41435 6.86785 4.49631 -56.37092 4.12983 4.27714 4.95597
0.25581 0.47802 -0.64336 117.72653 0 -5.53284 -56.06392 7.67338 34.51238 -73.79695 43.14367 -29.68504 -34.32283 -171.02789 -90.01101 34.16908 82.81055 -4.65834 0.75034 148.97393 25.62591 -64.16808 5.32863 -80.62059 -2.30189 1.9589 20.85655 -1.90379 -18.11153 -62.53359 14.40989 -11.54641 -9.36877 39.12958 7.08415 4.635 -55.98267 4.13232 4.1874 4.69969
0.25454 0.4796 -0.64384 117.95454 0 -5.84815 -56.06392 8.18354 34.16757 -73.79696 43.1437 -30.208 -34.2528 -171.02789 -90.01128 36.6881 82.36217 -4.60153 0.22205 149.16703 26.62746 -64.16936 5.32858 -81.29744 -2.18246 1.6748 20.38573 -1.5925 -18.18209 -61.7915 14.09304 -11.1345 -9.32236 38.83452 7.3394 4.81162 -55.5662 4.13431 4.07059 4.36764
0.25323 0.48106 -0.64426 118.06218 0 -6.11777 -56.06392 8.4864 33.92116 -73.79696 43.1437 -30.59898 -34.21909 -171.0279 -90.01147 38.65125 82.00568 -4.58287 -0.17639 149.29515 27.46548 -64.17011 5.32855 -81.89296 -2.09925 1.43636 19.95184 -1.34525 -18.24535 -61.08644 13.83698 -10.75796 -9.21595 38.55302 7.5354 4.92012 -55.19792 4.13124 4.00813 4.19069
0.25182 0.48213 -0.64452 117.83889 0 -6.25456 -56.06392 8.22271 33.98348 -73.79693 43.14361 -30.52454 -34.28987 -171.02789 -90.01139 38.96421 81.93342 -4.68237 -0.20546 149.18608 27.75054 -64.1693 5.32856 -82.25473 -2.1326 1.31811 19.6244 -1.28257 -18.28517 -60.49765 13.76205 -10.50068 -8.94938 38.31599 7.54933 4.8194 -54.97653 4.12137 4.10456 4.46178
0.25038 0.48305 -0.64471 117.49958 0 -6.34209 -56.06392 7.75515 34.14567 -73.7969 43.14348 -30.31588 -34.39639 -171.02789 -90.01123 38.6992 81.95608 -4.81882 -0.10007 149.01057 27.86053 -64.168 5.32858 -82.52788 -2.20142 1.24949 19.33781 -1.28785 -18.31671 -59.95531 13.75051 -10.28399 -8.62618 38.09496 7.49985 4.651 -54.8064 4.10785 4.25481 4.88598
0.24896 0.48402 -0.64493 117.22377 0 -6.44735 -56.06392 7.38984 34.25352 -73.79687 43.14337 -30.19457 -34.4837 -171.02789 -90.01112 38.69313 81.9315 -4.93237 -0.05183 148.87984 28.05866 -64.16699 5.32859 -82.82896 -2.24703 1.16759 19.03767 -1.26744 -18.35212 -59.40474 13.71032 -10.05143 -8.33381 37.86825 7.47661 4.52134 -54.61258 4.09628 4.37581 5.22818
0.24749 0.48507 -0.64517 116.9002 0 -6.57402 -56.06392 6.98131 34.39563 -73.79683 43.14325 -29.97234 -34.58375 -171.02788 -90.01096 38.71772 81.92056 -5.07172 -0.02218 148.69368 28.23441 -64.16572 5.32861 -83.18506 -2.32115 1.04621 18.71404 -1.2237 -18.38851 -58.79429 13.6674 -9.80316 -8.01669 37.63252 7.46708 4.35953 -54.41709 4.0821 4.51649 5.62245
0.24613 0.48591 -0.64536 116.64924 0 -6.64394 -56.06391 6.61525 34.49151 -73.79681 43.14315 -29.92333 -34.66553 -171.02788 -90.01087 38.53782 81.90528 -5.16565 0.07835 148.60408 28.40916 -64.16486 5.32863 -83.40541 -2.3453 1.01825 18.45041 -1.2445 -18.41955 -58.32223 13.64611 -9.60004 -7.74001 37.42102 7.41323 4.24785 -54.2397 4.07326 4.62942 5.94488
0.24508 0.48626 -0.64544 116.62971 0 -6.56654 -56.06391 6.41854 34.43503 -73.7968 43.14313 -30.39919 -34.68961 -171.02788 -90.01099 37.90616 81.85338 -5.13103 0.34715 148.80644 28.63234 -64.16525 5.32865 -83.25976 -2.21732 1.24506 18.33644 -1.43601 -18.44801 -58.21458 13.66794 -9.49986 -7.5752 37.26328 7.24781 4.29277 -54.08544 4.07718 4.64952 6.03024
0.24415 0.48639 -0.64547 116.6872 0 -6.4341 -56.06391 6.27181 34.3293 -73.79681 43.14314 -31.04983 -34.6937 -171.02789 -90.01118 37.09221 81.79449 -5.0487 0.68155 149.10558 28.85689 -64.16605 5.32867 -82.98223 -2.03901 1.56252 18.28273 -1.6887 -18.46962 -58.24638 13.70975 -9.44622 -7.45569 37.13128 7.04039 4.38969 -53.95054 4.08729 4.64044 6.0384
0.24317 0.4866 -0.64552 116.70808 0 -6.3281 -56.06391 6.10088 34.24657 -73.7968 43.14314 -31.61058 -34.70602 -171.02789 -90.01133 36.37692 81.7404 -4.98403 0.98326 149.35399 29.07376 -64.16665 5.3287 -82.77306 -1.8874 1.83298 18.20575 -1.90779 -18.48734 -58.21937 13.74355 -9.37984 -7.32494 36.99379 6.8548 4.46191 -53.81653 4.09662 4.64675 6.08259
0.24214 0.48689 -0.64559 116.73143 0 -6.21371 -56.06391 5.92817 34.16394 -73.7968 43.14313 -32.21232 -34.72348 -171.0279 -90.01151 35.57189 81.68321 -4.93639 1.30354 149.62962 29.31556 -64.1673 5.32873 -82.52583 -1.72072 2.1303 18.11312 -2.15388 -18.53343 -58.17509 13.7754 -9.28024 -7.15351 36.83073 6.65545 4.53746 -53.64363 4.09723 4.64596 6.12763
0.24124 0.48696 -0.64561 116.76973 0 -6.1052 -56.06391 5.77483 34.06899 -73.79681 43.14314 -32.77021 -34.72466 -171.0279 -90.01164 34.92185 81.62896 -4.84304 1.59672 149.87121 29.50675 -64.16795 5.32874 -82.32705 -1.57319 2.39171 18.06644 -2.35714 -18.52009 -58.19869 13.81474 -9.25919 -7.07731 36.72674 6.47564 4.61785 -53.55537 4.11754 4.65232 6.15122
0.24067 0.4865 -0.64555 116.82878 0 -6.0192 -56.06392 5.65405 33.94415 -73.79683 43.14324 -33.17888 -34.68906 -171.0279 -90.01162 34.7117 81.58997 -4.62139 1.81839 150.0055 29.56893 -64.16851 5.32872 -82.30015 -1.48931 2.53896 18.1354 -2.42913 -18.33418 -58.38075 13.87416 -9.45382 -7.26192 36.78031 6.35996 4.71208 -53.69822 4.1905 4.68526 6.12779
0.24023 0.48584 -0.64545 116.90107 0 -5.9425 -56.06392 5.55354 33.80956 -73.79687 43.14337 -33.53533 -34.6371 -171.0279 -90.01155 34.67176 81.55289 -4.35774 2.00664 150.10079 29.57901 -64.16904 5.32868 -82.32604 -1.42664 2.64545 18.24753 -2.45531 -18.09066 -58.62492 13.93944 -9.72381 -7.5393 36.89211 6.26576 4.80758 -53.92477 4.28314 4.72614 6.08572
0.23972 0.48527 -0.64537 116.96911 0 -5.86663 -56.06392 5.45071 33.68416 -73.7969 43.14348 -33.9067 -34.59018 -171.0279 -90.0115 34.57949 81.51065 -4.12218 2.19629 150.20718 29.60643 -64.16957 5.32866 -82.3242 -1.35492 2.76547 18.33752 -2.5007 -17.88015 -58.83734 13.99872 -9.95241 -7.76881 36.97687 6.16202 4.89375 -54.1116 4.36694 4.76341 6.05605
0.23924 0.48466 -0.64529 117.03259 0 -5.76787 -56.06392 5.32106 33.53714 -73.79693 43.14361 -34.32116 -34.55224 -171.0279 -90.01144 34.37901 81.48556 -3.84707 2.44484 150.34399 29.66017 -64.17019 5.32862 -82.33293 -1.27853 2.90928 18.44077 -2.55462 -17.64044 -59.0704 14.07228 -10.21279 -8.02448 37.06551 6.05564 5.0173 -54.30695 4.45053 4.8 6.00801
0.23873 0.48411 -0.64519 117.10736 0 -5.71922 -56.06392 5.25061 33.43328 -73.79696 43.1437 -34.63136 -34.49255 -171.0279 -90.0114 34.44155 81.42627 -3.64488 2.56398 150.40802 29.64719 -64.1706 5.3286 -82.33462 -1.2181 2.99329 18.52523 -2.57963 -17.44813 -59.27231 14.1179 -10.4243 -8.24646 37.15888 5.96068 5.06434 -54.50327 4.53913 4.83992 5.99378
0.23811 0.48376 -0.64505 117.21269 0 -5.81128 -56.06392 5.34588 33.45272 -73.79693 43.14361 -34.66433 -34.37183 -171.0279 -90.01141 35.2349 81.26353 -3.65536 2.31567 150.2709 29.45894 -64.1704 5.32862 -82.29846 -1.1921 2.91642 18.55262 -2.53076 -17.39913 -59.38183 14.07886 -10.4818 -8.3583 37.25686 5.88997 4.88488 -54.68988 4.63692 4.89017 6.08652
